<?xml version="1.0" encoding="UTF-8"?>
<svg width="40" height="40" id="Layer_1" data-name="Layer 1" xmlns="http://www.w3.org/2000/svg" viewBox="0 0 40 40">
  <defs>
    <style>
      .cls-1 {
        fill: #01a859;
        stroke-width: 0px;
        
      }
    </style>
  </defs>
  <path class="cls-1" d="M21.97,37h-1.86c-.48-.05-.97-.1-1.45-.16-2.44-.34-4.7-1.16-6.77-2.49-.19-.12-.36-.15-.58-.08-1.13.38-2.27.74-3.41,1.1-.92.3-1.85.59-2.82.9.04-.14.07-.23.1-.33.62-1.85,1.23-3.7,1.87-5.54.12-.34.08-.58-.12-.88-1.68-2.43-2.64-5.13-2.9-8.06-.32-3.64.41-7.08,2.33-10.19,3.18-5.17,7.85-7.97,13.92-8.32,3.36-.19,6.52.61,9.39,2.37,4.42,2.7,7.13,6.6,8.09,11.71.12.64.18,1.29.27,1.93v2c-.03.24-.05.48-.08.72-.41,3.65-1.8,6.88-4.25,9.62-2.63,2.93-5.88,4.75-9.76,5.44-.64.11-1.29.18-1.94.26ZM26.44,29.57c.58-.11,1.06-.14,1.5-.3,2.4-.83,3.22-1.99,3.29-4.22,0-.34-.11-.57-.42-.72-1.28-.61-2.55-1.24-3.83-1.83-.63-.29-1.01-.17-1.44.4-.34.45-.67.91-1.02,1.36-.5.64-.88.73-1.65.42-2.85-1.16-4.96-3.17-6.53-5.78-.24-.4-.22-.63.09-1,.33-.4.69-.78,1.03-1.18.4-.47.52-.95.24-1.55-.58-1.28-1.1-2.59-1.66-3.87-.08-.18-.27-.41-.44-.45-.89-.22-1.83-.27-2.57.34-1.66,1.36-2.18,3.18-1.86,5.24.24,1.53.99,2.85,1.86,4.11,1.3,1.86,2.76,3.58,4.49,5.06,1.92,1.64,4.15,2.7,6.54,3.42.8.24,1.63.38,2.37.55Z"/>
</svg>